<?xml version="1.0" standalone="no"?><!DOCTYPE svg PUBLIC "-//W3C//DTD SVG 1.1//EN" "http://www.w3.org/Graphics/SVG/1.1/DTD/svg11.dtd"><svg t="1607516505559" class="icon" viewBox="0 0 1024 1024" version="1.1" xmlns="http://www.w3.org/2000/svg" p-id="563" xmlns:xlink="http://www.w3.org/1999/xlink" width="200" height="200"><defs><style type="text/css"></style></defs><path d="M512 1024Q0 1024 0 512T512 0q512 0 512 512T512 1024z" fill="#BDB593" p-id="564"></path><path d="M587.636364 791.272727h-151.272728a13.963636 13.963636 0 0 1-13.963636-17.454545L442.181818 698.181818h139.636364l18.618182 75.636364a13.963636 13.963636 0 0 1-12.8 17.454545z" fill="#F2EEE4" p-id="565"></path><path d="M629.527273 450.327273m-8.145455 0a8.145455 8.145455 0 1 0 16.290909 0 8.145455 8.145455 0 1 0-16.290909 0Z" fill="#FFFFFF" p-id="566"></path><path d="M413.090909 425.890909m-32.581818 0a32.581818 32.581818 0 1 0 65.163636 0 32.581818 32.581818 0 1 0-65.163636 0Z" fill="#FFFFFF" p-id="567"></path><path d="M629.527273 401.454545m-8.145455 0a8.145455 8.145455 0 1 0 16.290909 0 8.145455 8.145455 0 1 0-16.290909 0Z" fill="#FFFFFF" p-id="568"></path><path d="M603.927273 425.890909m-8.145455 0a8.145455 8.145455 0 1 0 16.290909 0 8.145455 8.145455 0 1 0-16.290909 0Z" fill="#FFFFFF" p-id="569"></path><path d="M653.963636 425.890909m-8.145454 0a8.145455 8.145455 0 1 0 16.290909 0 8.145455 8.145455 0 1 0-16.290909 0Z" fill="#FFFFFF" p-id="570"></path><path d="M791.272727 232.727273H232.727273a46.545455 46.545455 0 0 0-46.545455 46.545454v372.363637a46.545455 46.545455 0 0 0 46.545455 46.545454h558.545454a46.545455 46.545455 0 0 0 46.545455-46.545454V279.272727a46.545455 46.545455 0 0 0-46.545455-46.545454zM669.090909 585.309091a44.218182 44.218182 0 0 1-51.2-15.127273L558.545455 489.890909a82.618182 82.618182 0 0 1-13.963637-13.963636h-65.163636a82.618182 82.618182 0 0 1-13.963637 13.963636L406.109091 570.181818a44.218182 44.218182 0 0 1-80.290909-30.254545l5.818182-98.909091a82.618182 82.618182 0 0 1-1.163637-15.127273 82.618182 82.618182 0 0 1 148.945455-48.872727h66.327273a82.618182 82.618182 0 0 1 148.945454 48.872727 82.618182 82.618182 0 0 1-1.163636 15.127273l5.818182 98.909091a44.218182 44.218182 0 0 1-30.254546 45.381818z" fill="#FFFFFF" p-id="571"></path></svg>